<svg xmlns="http://www.w3.org/2000/svg" width="200" height="26" viewBox="0 0 200 26">
    <g fill="#4B96E6" fill-rule="evenodd">
        <path d="M39.79.732c-6.96 0-12.6 5.642-12.603 12.6.002 6.96 5.644 12.603 12.603 12.603 6.96-.001 12.6-5.642 12.602-12.602C52.39 6.373 46.75.732 39.79.732M78.638 23.45L66.28 2.04a1.177 1.177 0 0 0-2.036 0l-12.36 21.412a1.163 1.163 0 0 0 0 1.175c.21.363.595.587 1.016.587h24.722a1.175 1.175 0 0 0 1.017-1.765M23.967 1.795a1.177 1.177 0 0 0-.829-.343H1.726A1.175 1.175 0 0 0 .55 2.626v9.533a1.174 1.174 0 0 0 1.176 1.174h4.765V24.04a1.177 1.177 0 0 0 1.177 1.174h9.53a1.175 1.175 0 0 0 1.174-1.174V13.333h4.465c.614-.001.908-.121 1.132-.344.223-.222.343-.52.343-.83V2.626c0-.31-.12-.607-.345-.831M129.109 1.795a1.164 1.164 0 0 0-.827-.343h-21.413a1.172 1.172 0 0 0-1.176 1.174v9.533a1.173 1.173 0 0 0 1.176 1.174h4.764V24.04a1.174 1.174 0 0 0 1.176 1.174h9.532a1.171 1.171 0 0 0 1.174-1.174V13.333h4.465c.613-.001.909-.122 1.132-.344.223-.222.343-.52.344-.83V2.626a1.168 1.168 0 0 0-.347-.831M98.876 8.8l3.224-5.585a1.163 1.163 0 0 0 0-1.175 1.176 1.176 0 0 0-1.017-.588H88.398a8.747 8.747 0 0 0-8.745 8.703 8.745 8.745 0 0 0 4.56 7.679l-3.242 5.617a1.17 1.17 0 0 0 0 1.176c.209.363.596.588 1.016.588h12.684A8.747 8.747 0 0 0 98.876 8.8M149.818 22.14h-4.787c-3.148 0-5.39-2.458-5.39-5.497v-6.618c0-3.04 2.35-5.498 5.39-5.498h4.39c.868 0 1.483-.651 1.483-1.52 0-.867-.615-1.554-1.483-1.554h-4.39c-4.738 0-8.646 3.834-8.646 8.572v6.618c0 4.702 3.799 8.572 8.646 8.572h4.787c.868 0 1.446-.651 1.446-1.52 0-.867-.578-1.554-1.446-1.554M195.796 1.09c-1.7 0-2.785.724-3.328 2.207l-4.882 13.455-.796 3.363c-.036.145-.072.29-.072.47 0 .833.687 1.52 1.627 1.52.868 0 1.375-.58 1.555-1.302l.688-3.111 4.737-13.274c.074-.181.182-.253.363-.253.325 0 .506.145.506.47v19.423c0 .868.615 1.519 1.591 1.519 1.013 0 1.664-.651 1.664-1.52V4.636c0-1.953-1.519-3.544-3.653-3.544M187.514 13.786c0-.217-.036-.434-.108-.651l-3.545-9.838c-.542-1.483-1.628-2.206-3.327-2.206-2.063 0-3.618 1.59-3.618 3.544v19.423c0 .868.615 1.519 1.627 1.519.868 0 1.628-.651 1.628-1.52V4.636c0-.325.145-.47.471-.47.181 0 .325.073.397.253l3.472 9.838c.254.724.832 1.049 1.447 1.049.832 0 1.556-.687 1.556-1.52M173.479 23.666L167.588 3.73c-.47-1.554-1.808-2.675-3.581-2.675-1.772 0-3.111 1.12-3.581 2.676l-5.891 19.935c-.036.18-.075.325-.075.47-.004.796.68 1.45 1.657 1.454.832.006 1.376-.427 1.56-1.113l5.751-19.843c.109-.325.325-.506.579-.506.253 0 .47.181.578.506l3.051 10.526h-4.533c-.868 0-1.41.688-1.41 1.555 0 .869.542 1.52 1.41 1.52h5.424l1.809 6.242c.185.686.73 1.119 1.562 1.113.977-.005 1.66-.659 1.656-1.454-.001-.145-.038-.29-.075-.47"/>
    </g>
</svg>
